<?xml version="1.0" encoding="UTF-8"?><svg id="Camada_2" xmlns="http://www.w3.org/2000/svg" viewBox="0 0 382.18 31.01"><defs><style>.cls-1{fill:#fff;}.cls-2{fill:none;stroke:#fff;}</style></defs><g id="Layer_2"><path class="cls-1" d="M27.61,29.85c-2.32,0-4.49,0-6.67,0-.91,0-1.81-.04-2.71.01-.58.04-.84-.2-1.06-.71-1.06-2.41-2.17-4.79-3.23-7.2-.23-.53-.52-.76-1.13-.73-1.22.06-2.44.02-3.75.02v8.55H0V.69c.27-.02.52-.05.78-.05,6.6,0,13.21-.01,19.81.02.39,0,.88.21,1.17.48,1.3,1.22,2.55,2.49,3.78,3.78.24.25.43.68.43,1.03.03,3.35.03,6.71,0,10.06,0,.35-.2.77-.44,1.03-.87.94-1.77,1.84-2.71,2.71-.41.39-.41.68-.14,1.16,1.52,2.68,3,5.39,4.49,8.09.13.23.24.46.44.85ZM16.92,8.51h-7.85v5.17h7.85v-5.17Z"/><path class="cls-1" d="M125.89,15.29c0,3.06.02,6.12-.02,9.18,0,.4-.2.88-.48,1.17-1.23,1.29-2.5,2.54-3.79,3.77-.26.24-.68.44-1.02.44-5.16.03-10.32.03-15.48,0-.33,0-.73-.16-.97-.39-1.33-1.27-2.63-2.56-3.9-3.89-.24-.25-.41-.68-.41-1.03-.02-6.17-.03-12.34,0-18.52,0-.37.18-.83.44-1.1,1.25-1.31,2.53-2.58,3.85-3.83.25-.24.68-.42,1.03-.42,5.13-.03,10.27-.03,15.4,0,.35,0,.78.19,1.03.43,1.31,1.25,2.6,2.52,3.84,3.83.26.27.44.72.45,1.1.04,3.09.02,6.17.02,9.26ZM108.95,8.57v13.42h7.81v-13.42h-7.81Z"/><path class="cls-1" d="M65.12.77v7.79h-7.92v21.31h-9.09V8.56h-7.92V.77h24.94Z"/><path class="cls-1" d="M29.4.76h8.99v29.12h-8.99V.76Z"/><path class="cls-1" d="M98.02.72v29.15h-8.83V13.38c-.06-.02-.12-.04-.18-.07-.29.36-.58.72-.86,1.09-1.69,2.22-3.38,4.45-5.08,6.67-.52.69-.74.69-1.26.01-1.73-2.26-3.45-4.53-5.18-6.79-.24-.31-.48-.62-.87-1.13v16.71h-8.84V.72c.71,0,1.4,0,2.08,0,2.02,0,4.05.02,6.07-.01.51,0,.82.17,1.13.57,1.81,2.4,3.64,4.79,5.46,7.18.24.31.48.62.78,1,1.45-1.89,2.85-3.73,4.25-5.56.69-.91,1.37-1.83,2.09-2.72.16-.2.45-.43.68-.43,2.82-.03,5.64-.02,8.55-.02Z"/><path class="cls-1" d="M207.41,29.85c-2.28,0-4.43,0-6.57,0-.89,0-1.79-.04-2.67.01-.57.04-.82-.2-1.04-.69-1.04-2.37-2.14-4.72-3.18-7.09-.23-.52-.51-.75-1.11-.72-1.2.06-2.4.02-3.69.02v8.42h-8.92V1.14c.26-.02.51-.04.76-.04,6.5,0,13.01-.01,19.51.02.39,0,.87.2,1.15.47,1.28,1.21,2.51,2.45,3.72,3.73.24.25.42.67.43,1.01.03,3.3.03,6.61,0,9.91,0,.34-.19.76-.43,1.01-.85.92-1.75,1.81-2.67,2.67-.41.38-.41.67-.14,1.14,1.5,2.64,2.96,5.31,4.43,7.97.12.23.24.46.43.84ZM196.88,8.83h-7.73v5.09h7.73v-5.09Z"/><path class="cls-1" d="M259.71,15.51c0,3.01.02,6.03-.02,9.04,0,.39-.2.87-.47,1.15-1.21,1.27-2.46,2.51-3.73,3.71-.25.24-.67.44-1.01.44-5.08.03-10.17.03-15.25,0-.32,0-.72-.16-.95-.38-1.31-1.25-2.59-2.52-3.84-3.83-.24-.25-.4-.67-.4-1.02-.02-6.08-.02-12.16,0-18.23,0-.37.18-.82.43-1.08,1.23-1.29,2.5-2.54,3.79-3.77.25-.24.67-.42,1.01-.42,5.06-.03,10.11-.03,15.17,0,.34,0,.76.18,1.01.42,1.29,1.23,2.56,2.48,3.79,3.77.25.27.44.71.44,1.08.03,3.04.02,6.08.02,9.12ZM243.03,8.89v13.21h7.69v-13.21h-7.69Z"/><path class="cls-1" d="M231.97,1.21v7.67h-7.8v20.98h-8.96V8.89h-7.8V1.21h24.56Z"/><path class="cls-1" d="M155.58,1.17h22.5c.02.24.06.46.06.69,0,1.99-.02,3.98.02,5.98.01.64-.21.79-.81.79-3.96-.02-7.92-.01-11.87-.01-.29,0-.57,0-.93,0v3.15h10.5c0,1.34,0,2.59,0,3.84,0,.92-.03,1.84.01,2.75.03.6-.18.76-.76.76-2.94-.03-5.87-.01-8.81-.01-.31,0-.62,0-1.02,0,0,1.06-.03,2.02.03,2.98,0,.14.45.35.69.35,2.2.03,4.4.02,6.61.02,2.07,0,4.14,0,6.28,0v7.41h-22.49V1.17Z"/><path class="cls-1" d="M136.75,22.12h7.75v-3.05h8.99c0,1.6-.06,3.2.02,4.78.05,1-.25,1.72-.99,2.38-1.13,1.01-2.15,2.15-3.26,3.19-.25.24-.67.43-1.01.44-5.09.03-10.18.03-15.26,0-.34,0-.76-.19-1.01-.43-1.29-1.23-2.56-2.49-3.79-3.77-.24-.25-.43-.67-.43-1.01-.03-6.08-.03-12.17,0-18.25,0-.34.18-.77.42-1.02,1.25-1.3,2.54-2.58,3.85-3.82.27-.25.72-.42,1.09-.43,5.01-.03,10.02-.03,15.03,0,.37,0,.82.18,1.09.44,1.32,1.24,2.59,2.53,3.86,3.81.16.16.37.37.37.56.03,1.99.02,3.97.02,6.01h-8.93v-3.04h-7.81v13.22Z"/><path class="cls-2" d="M288.38,19.11v6.57l-4.84,4.84h-17.18l-4.84-4.84V5.34l4.84-4.84h17.18l4.84,4.84v6.56h-9.42v-3.15h-8.03v13.5h8.03v-3.15h9.42Z"/><path class="cls-2" d="M309.65,17.08h8.29v13.43h-26.93v-8.25h3.15v-13.54h-3.15V.5h16.28v8.25h-3.71v13.5h6.08v-5.18Z"/><path class="cls-2" d="M350.51.5v8.25h-2.78v16.92l-4.84,4.84h-16.54l-4.84-4.84V8.75h-2.78V.5h14.74v8.25h-2.55v13.5h7.39v-13.5h-2.55V.5h14.74Z"/><path class="cls-2" d="M376.84.5l4.84,4.84v6.86l-3.11,3.11,3.11,3.11v7.24l-4.84,4.84h-24.31v-8.25h3.15v-13.5h-3.15V.5h24.31ZM365.06,8.75v2.59h7.2v-2.59h-7.2ZM372.26,22.26v-3h-7.2v3h7.2Z"/></g></svg>